<svg xmlns="http://www.w3.org/2000/svg" width="566.929" height="566.929" viewBox="0 0 150 150" xmlns:v="https://vecta.io/nano"><path d="M1.207 1.207h147.587v147.587H1.207z" stroke="#000" stroke-width="2.413"/><path d="M134.09 86.592c-1.462-6.997-4.657-12.36-10.817-14.566-2.207-.791-4.228-1.27-6.542-.537-2.025.642-3.531 1.895-5.954 1.822-1.283-5.549-2.701-11.924-2.037-17.663 1.389.241 2.381.531 3.38.566 3.41.119 5.067-1.873 5.084-5.985.008-1.598-.065-3.174-.466-4.722-.959-3.7-2.429-4.694-5.218-2.903-2.185 1.403-4.394 1.757-6.77 1.671-1.936-.07-3.875-.062-5.81 0-2.396.077-3.197.691-3.561 2.537-.6 3.055-.008 5.812 1.802 6.698 1.358.664 2.023 1.918 2.472 2.645 2.044 1.499 3.696.108 5.569.156-.072 5.963 1.52 11.508 2.508 17.537-5.316.322-7.006 4.632-10.58 6.552-10.577-5.24-22.395-6.281-33.134-12.422-3.81-5.115-7.045-11.232-11.441-16.127.768-3.501 2.68-7.026 2.727-6.809 1.444 6.591 4.466 9.818 10.093 9.793.905-.004 1.615-.339 1.806-1.519.163-1.006-.286-1.723-.998-2.024-.951-.403-1.954-.669-2.951-.87-2.953-.595-4.436-2.262-4.546-5.738-.085-2.665-.153-6.542.191-7.832s6.984-7.027 12.161-5.99c1.071.214 1.902-.08 2.193-.184 1.038-.371 1.661-1.264.536-2.394-1.647-1.617-8.332-1.869-10.995.699-2.259 2.178-4.858 1.717-7.015 3.953s-2.778 4.965-3.158 7.959c-.188 1.471-.723 2.79-1.263 4.118-2.78 6.836-5.198 13.827-6.112 21.432-.144 1.193-.414 2.302-1.055 3.22-1.372-.471-2.122-1.738-3.157-2.493-.863-.629-1.612-1.565-2.706-1.581-5.945-.087-11.65.815-15.978 6.42-.529.685-1.33 1.984-1.431 2.128s-1.021-.085-1.36.337a1.48 1.48 0 0 0 .009 1.787c-.114.258-.575 1.06-.835 1.429-3.695 5.26-3.39 10.949-.622 16.508 1.203 2.415 2.733 4.679 3.547 7.268 1.452 4.617 3.994 7.987 7.416 10.341 3.452 2.375 7.176 3.435 11.022 1.084 1.738-1.065 3.577-1.881 5.471-2.205 4.999-.852 8.866-4.088 12.405-8.072 1.409-1.586 2.06-3.557 1.721-5.972-.32-2.284-.52-4.947-.758-7.3.354-.471 1.226-.678.956-1.699-.486-1.268-1.587-1.473-2.417-1.577-2.518-5.558-6.581-9.705-10.042-14.808 1.655-4.761 1.2-10.419 3.608-15.223 1.496.696 2.295 1.939 3.082 3.223.966 1.575 1.88 3.218 2.985 4.643 4.411 5.69 5.899 12.053 10.079 17.895.508.71 1.304 2.44 1.532 3.712.915 5.106 3.266 7.402 6.107 11.086 2.751 3.568 5.993 6.235 10.344 6.133 1.4-.034 2.841-.181 4.497.388.271 3.822 1.076 7.226 1.788 10.669.485 2.344 1.428 4.008 3.113 5.133 4.998 3.336 10.22 6.068 15.756 7.79 2.422.753 4.889.286 7.107-1.207.983-.662 2.003-1.164 3.023-1.709 2.533-1.349 5.109-3.233 6.656-5.669 2.727-4.3 4.779-9.296 6.709-14.228 2.189-5.6 1.47-11.578.275-17.298zM35.796 69.317c-1.022 5.514-2.159 10.314-1.232 15.991-4.509-2.337-7.403-6.076-11.015-8.91 2.916-5.305 7.154-6.301 12.248-7.081zm-16.09 20.147c-1.457-4.29-.192-7.813 2.652-10.998 4.021 3.696 8.081 7.254 12.378 10.688-2.609 4.992-6.325 7.485-10.564 9.445-1.832-2.86-3.359-5.874-4.466-9.134zm14.964 20.106c-3.835.221-7.618-3.097-9.405-8.587 3.77-2.08 7.232-4.335 10.159-8.434 1.339 6.122.441 11.579-.755 17.022zm3.479-39.975c1.665.795 2.886 2.385 4.487 3.84-2.097 4.117-3.207 8.586-3.541 13.413-.745.417-1.158.807-2.043.65-1.555-5.987-.532-11.88 1.097-17.904zm9.905 36.461c-3.502 1.04-7.185 1.825-11.023 4.257.725-5.921 1.891-11.264.794-16.619 1.014-1.078 2.097-.266 2.939-.802 2.93 2.458 4.791 5.861 6.888 8.983.726 1.083.701 2.494.403 4.18zm2.524-1.938c-1.094-5.312-4.768-8.425-7.547-12.832 4.156-1.62 8.117-2.109 12.074-2.002 2.675 9.201 1.444 11.437-4.527 14.834zM54.278 86.4c-4.153 1.027-7.948.413-11.585 2.613-.496-5.912.677-10.481 3.359-13.395 2.784 3.173 5.226 6.742 8.226 10.782zm65.024-11.533c2.388-.273 4.666 1.282 6.803 3.039-1.529 2.936-4.209 4.338-5.681 7.196-1.396 2.711-2.061 6.037-4.281 8.219-.675-.944-.435-1.84-.388-2.613.162-2.708-.516-5.053-1.854-7.179-1.262-2.006-2.105-3.667-2.423-6.51 2.83-.138 5.458-1.883 7.824-2.153zm-10.845 2.257c.525 2.042.824 5.15 1.753 6.943s2.8 3.764 2.181 6.994c-1.479-1.932-2.38-4.103-2.956-6.132s-2.021-3.938-3.001-5.848c.462-1.302.784-1.988 2.022-1.957zm-4.533 2.463c1.503 1.821 2.423 3.957 3.367 7.183l-6.443-4.427 3.076-2.756zm-5.551 5.827c4.638 2.227 8.598 5.169 12.386 10.041-5.743-.853-10.698 1.506-16.28 1.003 1.21-3.968 1.772-7.775 3.894-11.044zm-7.98 13.306c-4.53.729-8.884.56-12.288-3.499-2.363-2.818-4.842-5.821-5.796-9.735-1.093-4.488-3.57-7.854-5.973-12.493 5.191 2.757 9.869 4.625 14.776 5.57 4.836.932 9.308 3.309 14.145 5.03-2.179 4.913-3.085 10.196-4.864 15.127zm30.031 20.629c-1.954 1.264-4.006 2.31-6.023 3.432-.967.54-2.002.47-3.009.288-2.525-.456-4.841-1.652-7.439-2.881 2.122-3.133 5.247-4.335 6.803-7.641 1.44-3.06 2.777-6.24 5.021-9.164 1.996 4.902 5.004 8.733 7.745 12.86-.808 1.526-1.962 2.373-3.097 3.107zm9.699-15.373c-1.399 3.223-4.279 9.789-4.905 10.277-3.536-3.941-7.749-13.398-8.43-13.876s-2.486.012-3.226 1.746c-.876 2.055-2.124 3.884-2.957 5.957-1.961 4.887-5.572 7.564-9.138 10.462-.819-.298-1.614-.51-2.356-.875-2.429-1.202-4.42-2.865-4.929-6.319-.4-2.712-1.45-5.306-.973-8.596 3.846.796 7.023-1.442 10.411-2.935 2.709-1.196 5.636-.488 8.467-.265 1.423.114 3.311.276 4.082-.751s4.281-8.839 6.582-13.133c1.206-2.254 3.252-3.55 4.929-5.472 1.735 2.136 2.922 4.324 3.304 7.067.352 2.529.884 5.046 1 7.591.145 3.209-.691 6.423-1.862 9.123z" fill="#fff"/></svg>