<svg version="1.1" id="Ebene_1" x="0px" y="0px" width="100%" height="100%" viewBox="0 0 372.08967 414.16233" enable-background="new 0 0 566.93 566.93" xml:space="preserve"
	xmlns="http://www.w3.org/2000/svg"
	xmlns:svg="http://www.w3.org/2000/svg">
	<defs>
		<mask id="cutout">
			<rect fill="white" x="300" y="300" width="100" height="100"/>
			<path fill="black" d="m 331.04214,373.62624 c 0.189,-0.253 0.646,-0.324 0.924,-0.402 1.193,-0.332 2.395,-0.665 3.582,-1.021 1.174,-0.353 2.344,-0.704 3.516,-1.058 0.365,-0.109 0.955,-0.479 1.158,-0.073 0.178,0.354 0.268,0.829 -0.072,1.111 -0.369,0.304 -0.877,0.562 -1.301,0.786 -0.879,0.467 -1.844,0.796 -2.803,1.05 -0.793,0.208 -1.613,0.299 -2.412,0.485 -0.574,0.134 -1.693,0.626 -2.26,0.269 -0.172,-0.108 -0.412,-0.679 -0.418,-0.87 -0.002,-0.11 0.029,-0.202 0.086,-0.277 z" id="path32" />
		</mask>
	</defs>

	<g transform="translate(-102.53786,-65.830761)">
		<g>
			<path fill="currentColor" d="m 306.107,464.936 c -1.971,-3.406 -3.9,-4.842 -7.74,-4.834 -3.84,0.011 -5.41,-0.72 -8.182,-4.205 -2.83,-3.557 0.271,-10.792 7.457,-10.836 1.957,-0.012 3.969,0.545 5.82,-0.548 0.891,-0.526 1.584,-1.257 1.637,-2.316 0.053,-1.069 -0.521,-1.864 -1.518,-2.276 -5.436,-2.236 -14.359,0.797 -17.672,5.739 -3.167,4.73 -5.972,10.176 0.539,15.082 0.305,0.229 0.477,0.981 0.357,1.383 -1.713,5.836 2.939,9.002 5.422,13.077 2.428,3.991 5.752,4.886 9.496,3.242 2.098,-0.922 1.74,-3.121 3.479,-0.603 1,1.456 2.309,3.062 4.174,1.532 1.854,-1.516 0.982,-3.666 0.316,-5.526 -1.081,-3.011 -1.926,-6.056 -3.585,-8.911 z m -14.152,0.552 c 7.783,-1.505 13.186,1.524 6.316,7.95 -3.068,-1.828 -5.025,-5.826 -6.316,-7.95 z" id="path2" />
			<path fill="currentColor" d="m 261.972,446.852 c 0.028,-8.553 -4.737,-13.566 -13.279,-14.316 -3.353,-0.294 -6.871,0.352 -9.87,-2.318 -1.784,-1.586 -3.669,-0.041 -3.586,1.895 0.229,5.401 -1.369,10.754 0.343,16.243 1.492,4.776 3.466,9.681 0.505,14.935 -1.803,3.199 0.766,4.564 3.598,4.572 4.552,0.007 8.684,-1.878 12.762,-3.644 5.917,-2.558 10.021,-6.5 9.257,-13.268 0.111,-1.62 0.266,-2.858 0.27,-4.099 z m -5.31,2.245 c -0.335,5.689 -4.733,11.343 -11.802,12.354 -2.506,0.357 -2.241,-1.061 -2.221,-2.461 0.061,-4.462 -0.912,-8.708 -2.119,-12.985 -0.839,-2.969 -1.789,-6.482 1.373,-8.745 2.065,-1.48 10.525,0.844 12.188,2.843 2.336,2.808 2.919,3.304 2.581,8.994 z" id="path4" />
			<path fill="currentColor" d="m 189.768,457.202 c -2.472,-2.739 -4.155,-6.101 -7.738,-8.815 5.839,-3.012 8.533,-8.854 6.989,-14.435 -1.313,-4.749 -5.602,-2.926 -8.714,-3.527 -3.195,-0.614 -7.249,0.613 -7.71,-4.694 -0.129,-1.481 -1.569,-2.551 -3.356,-1.896 -1.644,0.603 -2.171,2.088 -1.972,3.61 1.002,7.688 -0.564,15.286 -0.651,22.933 -0.019,1.552 0.087,3.23 1.913,3.459 1.691,0.208 2.649,-1.064 2.833,-2.743 0.47,-4.265 2.284,-2.412 4.296,-1.091 4.227,2.785 7.08,6.82 10.158,10.662 1.183,1.48 2.128,4.045 4.498,2.261 2.396,-1.804 0.998,-4.016 -0.546,-5.724 z m -11.532,-15.437 c -2.459,-0.26 -6.395,0.347 -5.844,-3.966 0.546,-4.273 4.023,-2.501 6.384,-2.461 2.248,0.032 5.307,-0.479 5.108,3.408 -0.23,4.54 -3.189,3.279 -5.648,3.019 z" id="path6" />
			<path fill="currentColor" d="m 337.338,444.212 c -0.996,-5.811 -3.791,-7.244 -9.65,-5.913 -2.609,0.593 -4.98,2.451 -7.84,1.687 -3.342,-0.892 -4.211,1.284 -3.945,3.647 0.83,7.355 0.586,14.885 3.32,21.967 0.541,1.388 0.596,3.134 2.543,3.106 1.877,-0.024 2.592,-1.56 2.428,-3.1 -0.652,-6.117 4.436,-4.027 7.096,-4.729 4.191,-1.104 3.006,2.572 3.414,4.76 0.178,0.958 0.529,1.911 0.957,2.788 0.594,1.214 1.59,1.926 3.002,1.499 1.4,-0.423 1.783,-1.55 1.551,-2.877 -0.929,-7.614 -1.579,-15.28 -2.876,-22.835 z m -11.283,11.686 c -4.836,0.224 -4.281,-3.403 -4.215,-6.648 0.064,-3.179 3.592,-6.209 7.619,-5.868 4.264,0.36 3.359,4.133 3.416,6.817 0.092,4.472 -1.84,5.99 -6.82,5.699 z" id="path8" />
			<path fill="currentColor" d="m 142.098,420.665 c -0.729,-0.091 -1.465,-0.28 -2.182,-0.224 -1.376,0.113 -2.431,0.889 -2.351,2.319 0.441,7.955 -1.006,15.593 -3.58,23.08 -0.405,1.178 -0.182,2.534 1.161,3.158 1.303,0.605 2.51,0.12 3.153,-1.071 1.049,-1.942 1.991,-3.959 2.804,-6.012 1.094,-2.766 3.256,-2.515 5.545,-2.274 2.857,0.297 2.745,2.292 2.628,4.34 -0.071,1.232 -0.135,2.465 -0.185,3.697 -0.058,1.386 0.541,2.554 1.841,2.864 1.765,0.414 2.939,-0.751 3.118,-2.352 0.414,-3.666 0.555,-7.362 0.807,-11.049 0.478,-17.137 4.047,-14.354 -12.759,-16.476 z m 3.787,13.767 c -2.24,-0.216 -3.763,-0.751 -3.28,-3.533 0.449,-2.58 0.164,-4.644 4.021,-4.196 3.857,0.448 3.731,1.87 3.604,4.365 -0.154,2.992 -1.747,3.613 -4.345,3.364 z" id="path10" />
			<path fill="currentColor" d="m 368.047,434.05 c -1.195,0.099 -1.838,1.064 -1.832,1.989 0.012,2.215 0.336,4.424 0.525,6.637 0.307,3.594 2.363,7.019 1.127,11.272 -4.697,-3.188 -7.418,-7.585 -10.361,-11.803 -1.174,-1.684 -2.762,-3.185 -4.984,-2.067 -1.906,0.962 -1.418,2.998 -1.197,4.674 0.551,4.162 1.383,8.352 2.447,12.336 0.691,2.586 -1.615,8.871 3.928,7.509 4.703,-1.154 1.072,-5.727 0.455,-9.521 4.561,0.537 6.127,4.279 9.17,5.791 2.76,1.371 4.867,1.425 5.631,-1.998 1.799,-8.068 -0.793,-15.712 -2.562,-23.41 -0.212,-0.929 -1.244,-1.505 -2.347,-1.409 z" id="path12" />
			<path fill="currentColor" d="m 211.115,430.925 c -0.416,-1.396 -1.52,-2.672 -3.362,-2.148 -1.333,0.381 -2.238,1.557 -1.997,2.785 0.979,4.969 -1.84,8.388 -4.355,12.065 -1.818,2.665 -3.237,6.738 -3.527,8.672 -0.29,1.935 -0.551,3.964 1.663,4.644 1.838,0.564 2.625,-0.825 3.037,-2.369 0.354,-1.324 1.06,-1.953 2.531,-2.176 7.53,-1.135 11.556,1.259 14.007,8.828 0.495,1.525 0.894,3.174 2.545,3.122 2.092,-0.068 2.537,-1.926 2.699,-3.771 0.136,-1.568 -0.472,-2.883 -1.025,-4.27 -3.48,-8.745 -9.506,-16.256 -12.216,-25.382 z m -1.377,16.996 c -1.28,-0.224 -3.366,0.437 -3.474,-1.586 -0.094,-1.802 1.539,-3.424 3.058,-3.636 2.103,-0.291 2.333,1.897 2.767,3.501 0.436,1.603 -1.179,1.925 -2.351,1.721 z" id="path14" />
			<path fill="currentColor" d="m 406.684,448.892 c 0.115,-0.967 -0.105,-1.975 -0.174,-2.966 -0.285,-4.419 -3.381,-5.008 -6.854,-4.926 -3.855,0.087 -6.299,1.512 -5.137,5.973 0.459,0.687 1.932,0.353 2.906,0.438 1.533,0.134 3.1,0.311 3.146,2.27 0.029,1.169 -0.037,2.607 -1.32,3.201 -1.729,0.798 -2.783,-0.588 -3.656,-1.675 -1.057,-1.319 -1.811,-2.88 -2.693,-4.336 -3.961,-5.985 -3.582,-10.061 1.66,-16.196 1.025,-1.196 2.131,-2.241 0.9,-3.787 -1.145,-1.437 -2.756,-1.179 -4.012,-0.343 -2.693,1.794 -4.938,3.858 -5.639,7.415 -1.602,8.161 0.117,15.135 6.174,21.01 3.031,2.938 11.584,4.936 14.939,2.652 3.951,-2.69 -0.588,-5.767 -0.24,-8.73 z" id="path16" />
			<path fill="currentColor" d="m 125.809,416.032 c -2.807,-1.158 -10.874,-1.31 -11.741,-1.694 -5.028,-2.238 -6.763,0.576 -7.517,4.826 -1.299,7.311 -2.57,14.63 -3.733,21.964 -0.292,1.846 -0.964,4.406 1.946,4.683 2.193,0.205 2.661,-1.966 2.831,-3.71 0.529,-5.428 3.521,-5.871 7.754,-3.993 1.804,0.805 3.556,1.746 5.414,2.393 1.438,0.505 3.121,0.515 3.917,-1.068 0.816,-1.624 -0.199,-2.701 -1.625,-3.582 -2.777,-1.71 -5.645,-3.267 -8.924,-3.531 -5.414,-0.437 -3.554,-4.319 -3.519,-7.228 0.039,-3.419 1.354,-5.835 5.39,-5.276 2.938,0.404 5.859,0.929 8.804,1.285 1.303,0.155 2.515,-0.316 2.988,-1.68 0.634,-1.825 -0.548,-2.797 -1.985,-3.389 z" id="path18" />
		</g>
		<path fill="currentColor" d="m 297.949,90.817 c 1.605,-1.137 4.055,1.95 5.461,2.949 0.592,0.419 1.268,0.774 1.943,1.073 3.15,1.4 5.498,-0.248 5.021,-3.05 -1.344,-7.901 -0.82,-15.771 -0.787,-23.667 0.006,-1.414 -0.879,-2.308 -2.316,-2.291 -1.047,0.011 -1.961,0.684 -2.176,1.696 -0.352,1.684 -0.572,3.419 -0.625,5.14 -0.105,3.461 -0.084,6.928 -0.072,10.393 0.012,2.544 -0.023,5.028 -3.367,2.15 -0.469,-0.404 -1.195,-0.939 -2.154,-1.562 -4.373,-2.835 -7.084,-1.25 -7.209,4.422 -0.076,3.44 -0.16,6.308 0.398,10.352 0.412,2.985 0.541,4.259 -3.232,4.842 -3.848,0.595 -4.615,2.608 -1.77,5.396 4.93,4.832 10.355,9.172 14.633,14.643 2.412,3.082 5.959,1.615 5.922,-0.647 -0.041,-2.262 -0.07,-3.98 -0.102,-5.971 -0.125,-2.959 0.303,-6.283 -0.045,-9.113 -0.467,-3.833 -1.373,-5.467 -5.148,-5.38 -4.438,0.103 -4.707,-0.311 -5.111,-3.831 -0.301,-2.597 -1.49,-5.968 0.736,-7.544 z m 2.041,16.388 c 4.041,0.342 2.773,3.549 2.211,5.445 -0.762,2.573 -2.617,1.036 -3.979,0.114 -1.426,-0.97 -2.805,-2.018 -4.201,-3.031 -1.789,-1.429 4.627,-2.643 5.969,-2.528 z" id="path22" />
		<path fill="currentColor" d="m 418.34,297.621 c -3.562,-14.185 -11.348,-25.059 -26.359,-29.531 -5.379,-1.603 -10.303,-2.574 -15.943,-1.089 -4.934,1.301 -8.604,3.841 -14.51,3.694 -3.127,-11.251 -6.582,-24.175 -4.963,-35.81 3.385,0.489 5.801,1.077 8.236,1.147 8.309,0.242 12.348,-3.797 12.389,-12.134 0.018,-3.239 -0.16,-6.436 -1.135,-9.574 -2.336,-7.501 -5.918,-9.517 -12.715,-5.886 -5.324,2.845 -10.707,3.562 -16.498,3.388 -4.717,-0.141 -9.443,-0.125 -14.158,0 -5.838,0.156 -7.791,1.401 -8.678,5.144 -1.461,6.193 -0.02,11.784 4.391,13.579 3.309,1.347 4.93,3.888 6.025,5.362 4.982,3.04 9.006,0.219 13.57,0.316 -0.176,12.089 3.705,23.332 6.111,35.555 -12.955,0.653 -17.072,9.391 -25.781,13.283 -25.775,-10.624 -54.573,-12.734 -80.743,-25.185 -9.284,-10.37 -17.168,-22.772 -27.88,-32.696 1.872,-7.098 6.53,-14.245 6.646,-13.804 3.519,13.362 10.884,19.905 24.596,19.854 2.205,-0.008 3.935,-0.687 4.4,-3.08 0.398,-2.039 -0.698,-3.494 -2.432,-4.104 -2.318,-0.817 -4.762,-1.357 -7.192,-1.763 -7.195,-1.206 -10.809,-4.585 -11.077,-11.634 -0.207,-5.403 -0.373,-13.264 0.466,-15.879 0.838,-2.615 17.02,-14.247 29.634,-12.145 2.609,0.434 4.636,-0.163 5.344,-0.373 2.53,-0.753 4.048,-2.562 1.305,-4.853 -4.014,-3.278 -20.303,-3.789 -26.794,1.417 -5.505,4.416 -11.839,3.482 -17.095,8.014 -5.255,4.532 -6.77,10.067 -7.696,16.137 -0.457,2.983 -1.763,5.657 -3.078,8.348 -6.774,13.859 -12.666,28.032 -14.894,43.451 -0.35,2.418 -1.008,4.667 -2.572,6.528 -3.343,-0.954 -5.172,-3.523 -7.694,-5.054 -2.104,-1.276 -3.929,-3.173 -6.594,-3.206 -14.486,-0.177 -28.39,1.652 -38.936,13.015 -1.289,1.388 -3.242,4.022 -3.486,4.315 -0.246,0.292 -2.487,-0.171 -3.314,0.683 -0.972,1.004 -0.962,2.625 0.02,3.622 -0.277,0.523 -1.402,2.149 -2.034,2.897 -9.004,10.664 -8.262,22.199 -1.516,33.468 2.931,4.896 6.66,9.486 8.644,14.736 3.539,9.361 9.733,16.193 18.072,20.965 8.411,4.816 17.486,6.965 26.858,2.197 4.236,-2.16 8.717,-3.814 13.332,-4.471 12.181,-1.727 21.604,-8.289 30.228,-16.365 3.433,-3.215 5.021,-7.211 4.195,-12.107 -0.779,-4.631 -1.268,-10.029 -1.846,-14.801 0.862,-0.955 2.988,-1.375 2.33,-3.445 -1.184,-2.57 -3.868,-2.986 -5.889,-3.197 -6.136,-11.268 -16.036,-19.676 -24.47,-30.021 4.034,-9.653 2.925,-21.123 8.792,-30.864 3.646,1.412 5.592,3.931 7.51,6.534 2.353,3.194 4.582,6.524 7.275,9.413 10.748,11.536 14.375,24.436 24.562,36.28 1.237,1.439 3.177,4.947 3.733,7.525 2.23,10.352 7.959,15.006 14.882,22.475 6.705,7.234 14.604,12.641 25.208,12.434 3.412,-0.068 6.922,-0.367 10.959,0.787 0.66,7.748 2.621,14.65 4.357,21.631 1.182,4.752 3.48,8.127 7.586,10.406 12.18,6.764 24.904,12.303 38.395,15.793 5.902,1.527 11.914,0.58 17.318,-2.447 2.396,-1.342 4.881,-2.361 7.367,-3.465 6.172,-2.736 12.451,-6.555 16.219,-11.494 6.646,-8.717 11.646,-18.846 16.348,-28.846 5.333,-11.353 3.581,-23.474 0.669,-35.07 z M 178.812,262.599 c -2.49,11.18 -5.26,20.911 -3.003,32.421 -10.988,-4.738 -18.04,-12.319 -26.843,-18.065 7.105,-10.755 17.434,-12.774 29.846,-14.356 z m -39.209,40.846 c -3.55,-8.697 -0.469,-15.84 6.462,-22.298 9.799,7.494 19.693,14.707 30.164,21.669 -6.358,10.121 -15.414,15.176 -25.743,19.148 -4.464,-5.798 -8.185,-11.909 -10.883,-18.519 z m 36.466,40.764 c -9.345,0.449 -18.564,-6.279 -22.918,-17.41 9.186,-4.217 17.623,-8.789 24.757,-17.1 3.263,12.412 1.075,23.475 -1.839,34.51 z m 8.478,-81.046 c 4.057,1.612 7.032,4.835 10.934,7.786 -5.111,8.347 -7.815,17.407 -8.628,27.194 -1.816,0.846 -2.821,1.637 -4.979,1.318 -3.79,-12.139 -1.296,-24.085 2.673,-36.298 z m 24.138,73.921 c -8.535,2.109 -17.509,3.699 -26.862,8.631 1.766,-12.004 4.607,-22.836 1.935,-33.693 2.472,-2.186 5.111,-0.539 7.162,-1.625 7.141,4.984 11.675,11.883 16.784,18.213 1.77,2.195 1.709,5.056 0.981,8.474 z m 6.151,-3.93 c -2.666,-10.77 -11.619,-17.08 -18.392,-26.016 10.127,-3.285 19.779,-4.275 29.423,-4.059 6.519,18.655 3.519,23.187 -11.031,30.075 z m 9.014,-35.922 c -10.121,2.082 -19.369,0.838 -28.231,5.297 -1.209,-11.986 1.65,-21.25 8.186,-27.157 6.783,6.432 12.735,13.669 20.045,21.86 z m 158.455,-23.383 c 5.82,-0.553 11.371,2.6 16.578,6.161 -3.727,5.952 -10.256,8.795 -13.844,14.59 -3.402,5.496 -5.023,12.24 -10.432,16.664 -1.646,-1.914 -1.059,-3.73 -0.945,-5.297 0.395,-5.49 -1.258,-10.244 -4.518,-14.555 -3.076,-4.066 -5.129,-7.435 -5.904,-13.198 6.897,-0.279 13.301,-3.817 19.065,-4.365 z m -26.428,4.575 c 1.279,4.14 2.008,10.441 4.273,14.076 2.265,3.635 6.824,7.631 5.314,14.18 -3.605,-3.916 -5.801,-8.318 -7.203,-12.432 -1.4,-4.113 -4.926,-7.984 -7.312,-11.857 1.125,-2.64 1.91,-4.031 4.928,-3.967 z m -11.047,4.993 c 3.662,3.691 5.904,8.023 8.205,14.562 -5.93,-3.391 -10.4,-5.943 -15.701,-8.975 2.82,-2.102 4.969,-3.705 7.496,-5.587 z m -13.527,11.813 c 11.303,4.516 20.953,10.48 30.184,20.357 -13.994,-1.729 -26.07,3.053 -39.672,2.033 2.949,-8.044 4.318,-15.763 9.488,-22.39 z m -19.446,26.977 c -11.039,1.477 -21.648,1.135 -29.945,-7.094 -5.759,-5.713 -11.8,-11.801 -14.124,-19.736 -2.664,-9.098 -8.699,-15.924 -14.555,-25.328 12.649,5.59 24.05,9.377 36.008,11.293 11.785,1.889 22.682,6.708 34.469,10.197 -5.31,9.961 -7.517,20.672 -11.853,30.668 z m 73.182,41.824 c -4.762,2.562 -9.762,4.684 -14.678,6.957 -2.357,1.094 -4.879,0.953 -7.332,0.584 -6.154,-0.924 -11.797,-3.35 -18.129,-5.84 5.172,-6.352 12.787,-8.789 16.578,-15.492 3.51,-6.205 6.768,-12.652 12.236,-18.58 4.865,9.938 12.195,17.705 18.873,26.072 -1.968,3.094 -4.782,4.811 -7.548,6.299 z m 23.635,-31.168 c -3.408,6.535 -10.428,19.846 -11.953,20.836 -8.617,-7.99 -18.883,-27.164 -20.543,-28.133 -1.664,-0.967 -6.059,0.023 -7.861,3.539 -2.135,4.166 -5.176,7.875 -7.205,12.078 -4.779,9.908 -13.578,15.336 -22.268,21.211 -1.996,-0.605 -3.934,-1.033 -5.742,-1.775 -5.92,-2.436 -10.771,-5.809 -12.01,-12.811 -0.975,-5.498 -3.533,-10.758 -2.371,-17.428 9.373,1.613 17.113,-2.924 25.371,-5.951 6.602,-2.424 13.734,-0.99 20.633,-0.537 3.467,0.23 8.068,0.559 9.947,-1.523 1.877,-2.082 10.432,-17.92 16.039,-26.627 2.939,-4.57 7.926,-7.197 12.012,-11.094 4.227,4.33 7.121,8.766 8.051,14.328 0.857,5.127 2.154,10.23 2.438,15.391 0.354,6.506 -1.685,13.022 -4.538,18.496 z" id="path24" />
	</g>
	<path mask="url(#cutout)" fill="currentColor" d="m 333.01514,378.80924 c -0.107,0.163 -0.117,0.388 -0.043,0.712 0.133,0.596 0.4,1.215 0.721,1.735 0.492,0.805 1.301,1.255 2.24,1.235 0.641,-0.016 1.277,-0.188 1.873,-0.413 1.596,-0.601 3.23,-1.22 4.896,-1.457 0.545,-0.076 1.32,-0.021 1.705,0.415 0.475,0.533 0.438,1.587 0.242,2.222 -0.32,1.041 -1.795,1.177 -2.656,1.46 -1.381,0.457 -2.797,0.833 -4.215,1.156 -0.799,0.182 -1.609,0.339 -2.42,0.477 -2.199,0.373 -4.166,-0.347 -5.021,-2.829 -1.049,-3.057 -4.705,-4.902 -4.193,-8.632 0.273,-2.002 0.957,-3.176 2.883,-3.964 2.297,-0.942 4.707,-1.787 7.08,-2.52 1.361,-0.417 2.742,-0.8 4.127,-1.134 2.213,-0.537 3.928,1.113 4.773,3.329 0.875,2.283 -0.262,3.686 -2.111,4.665 -1.23,0.652 -2.553,1.162 -3.875,1.602 -1.787,0.593 -3.605,1.13 -5.43,1.608 -0.289,0.075 -0.477,0.176 -0.576,0.333 z" id="path28" />
	<path fill="currentColor" d="m 362.14614,369.83424 c 0.143,-0.305 -0.074,-0.885 -0.125,-1.209 -0.322,-2.084 -1.395,-3.936 -2.012,-5.935 -0.682,-2.223 -0.697,-4.622 -0.625,-6.926 0.041,-1.316 0.125,-2.631 0.184,-3.946 0.061,-1.294 0.396,-2.91 1.502,-3.735 0.658,-0.494 1.801,0.803 2.168,1.362 1.004,1.535 0.678,3.627 0.209,5.292 -0.918,3.246 0.152,6.032 1.057,9.055 0.992,3.312 1.404,6.842 1.676,10.309 0.201,2.587 -2.115,3.751 -3.996,1.796 -3.844,-4.001 -7.279,-8.411 -10.682,-12.805 -1.92,-2.488 -3.482,-5.257 -5.113,-7.956 -0.338,-0.558 -0.67,-1.424 -0.607,-2.08 0.037,-0.402 -0.049,-0.258 0.252,-0.45 2.01,-1.273 3.531,1.03 4.646,2.274 1.191,1.325 2.32,2.787 3.049,4.424 1.545,3.472 3.771,6.598 6.277,9.437 0.373,0.426 1.439,2.301 2.125,1.123 0.005,-0.012 0.011,-0.02 0.015,-0.03 z" id="path30" />
	<line x1="334.51712" y1="372.81421" x2="336.05014" y2="373.77521" id="line34" />
	<path fill="currentColor" d="m 350.86214,380.58924 c -0.947,-0.864 -2.168,-0.31 -2.084,0.984 0.121,1.924 2.75,0.755 2.281,-0.684 -0.038,-0.116 -0.107,-0.216 -0.197,-0.3 z" id="path36" />
	<path fill="currentColor" d="m 371.68914,373.82824 c 0.848,-0.96 0.275,-2.167 -1.02,-2.062 -1.922,0.154 -0.709,2.761 0.725,2.268 0.117,-0.042 0.213,-0.111 0.295,-0.206 z" id="path38" />
</svg>
